<svg width="124" height="25" viewBox="0 0 124 25" fill="none" xmlns="http://www.w3.org/2000/svg">
<path d="M9.56732 0.783382C5.82332 1.97938 1.76732 6.19138 0.675322 10.0394C-0.312678 13.3674 -0.208678 15.2914 0.935322 15.2914C1.40332 15.2914 1.81932 14.5114 2.07932 13.1074C2.65132 9.77938 3.95132 7.43938 6.44732 5.20338C11.6473 0.627382 18.0953 0.939382 23.1913 6.03538L25.8953 8.73938L28.6513 6.03538C33.6953 0.939382 40.1433 0.627382 45.3433 5.20338C47.8393 7.43938 49.1393 9.77938 49.7113 13.1074C50.1273 15.4994 51.5313 16.1754 51.7913 14.0954C52.1553 11.4954 50.2313 7.07538 47.4233 4.26738C41.9113 -1.24462 33.8513 -1.45262 27.5073 3.85138L25.8953 5.25538L24.2833 3.85138C20.0713 0.367382 14.5593 -0.828618 9.56732 0.783382Z" fill="#6534FF"/>
<path d="M10.2953 6.29538C3.43132 9.77938 3.43132 19.2434 10.2953 22.7274C13.2073 24.1834 15.7033 24.1834 18.6153 22.7274C25.4793 19.2434 25.4793 9.77938 18.6153 6.29538C17.3673 5.67138 15.4953 5.15138 14.4553 5.15138C13.4153 5.15138 11.5433 5.67138 10.2953 6.29538Z" fill="#6534FF"/>
<path d="M33.1753 6.29538C26.3113 9.77938 26.3113 19.2434 33.1753 22.7274C36.0873 24.1834 38.5833 24.1834 41.4953 22.7274C48.3593 19.2434 48.3593 9.77938 41.4953 6.29538C40.2473 5.67138 38.3753 5.15138 37.3353 5.15138C36.2953 5.15138 34.4233 5.67138 33.1753 6.29538Z" fill="#6534FF"/>
<path d="M63.8435 19.2714V8.36229H68.1475C68.9749 8.36229 69.6798 8.52031 70.2622 8.83636C70.8445 9.14886 71.2884 9.58388 71.5938 10.1414C71.9028 10.6954 72.0573 11.3346 72.0573 12.059C72.0573 12.7835 71.901 13.4227 71.5885 13.9766C71.276 14.5306 70.8232 14.9621 70.2302 15.271C69.6407 15.58 68.9269 15.7344 68.0889 15.7344H65.3456V13.8861H67.716C68.1599 13.8861 68.5257 13.8097 68.8133 13.657C69.1045 13.5008 69.3211 13.2859 69.4632 13.0125C69.6087 12.7355 69.6815 12.4177 69.6815 12.059C69.6815 11.6968 69.6087 11.3808 69.4632 11.1109C69.3211 10.8374 69.1045 10.6261 68.8133 10.477C68.5221 10.3243 68.1528 10.2479 67.7053 10.2479H66.1499V19.2714H63.8435ZM73.5128 19.2714V11.0896H75.782V19.2714H73.5128ZM74.6527 10.0349C74.3153 10.0349 74.0259 9.92301 73.7844 9.69929C73.5465 9.47202 73.4276 9.20035 73.4276 8.8843C73.4276 8.5718 73.5465 8.30369 73.7844 8.07997C74.0259 7.8527 74.3153 7.73906 74.6527 7.73906C74.9901 7.73906 75.2777 7.8527 75.5156 8.07997C75.7571 8.30369 75.8778 8.5718 75.8778 8.8843C75.8778 9.20035 75.7571 9.47202 75.5156 9.69929C75.2777 9.92301 74.9901 10.0349 74.6527 10.0349ZM81.2964 19.4312C80.4584 19.4312 79.7375 19.2536 79.1338 18.8985C78.5336 18.5398 78.072 18.0427 77.7488 17.407C77.4292 16.7714 77.2694 16.0398 77.2694 15.2124C77.2694 14.3744 77.431 13.6393 77.7542 13.0072C78.0809 12.3715 78.5443 11.8761 79.1444 11.521C79.7446 11.1624 80.4584 10.983 81.2858 10.983C81.9996 10.983 82.6246 11.1126 83.1608 11.3719C83.697 11.6311 84.1214 11.9951 84.4339 12.4638C84.7464 12.9326 84.9186 13.483 84.9505 14.1151H82.8092C82.7488 13.7067 82.589 13.3783 82.3298 13.1297C82.0741 12.8776 81.7385 12.7515 81.3231 12.7515C80.9715 12.7515 80.6643 12.8474 80.4015 13.0391C80.1423 13.2273 79.9399 13.5026 79.7943 13.8648C79.6487 14.227 79.5759 14.6656 79.5759 15.1805C79.5759 15.7025 79.6469 16.1464 79.789 16.5121C79.9346 16.8779 80.1388 17.1567 80.4015 17.3484C80.6643 17.5402 80.9715 17.6361 81.3231 17.6361C81.5823 17.6361 81.8149 17.5828 82.0209 17.4763C82.2304 17.3697 82.4026 17.2153 82.5375 17.0129C82.676 16.8069 82.7666 16.5601 82.8092 16.2724H84.9505C84.915 16.8974 84.7446 17.4479 84.4392 17.9237C84.1373 18.396 83.7201 18.7653 83.1874 19.0317C82.6547 19.298 82.0244 19.4312 81.2964 19.4312ZM90.7553 11.0896V12.7941H85.8281V11.0896H90.7553ZM86.9467 9.12933H89.2159V16.7572C89.2159 16.9667 89.2479 17.13 89.3118 17.2472C89.3757 17.3609 89.4645 17.4408 89.5781 17.4869C89.6953 17.5331 89.8303 17.5562 89.9829 17.5562C90.0895 17.5562 90.196 17.5473 90.3026 17.5295C90.4091 17.5082 90.4908 17.4923 90.5476 17.4816L90.9045 19.1702C90.7908 19.2057 90.631 19.2465 90.4251 19.2927C90.2191 19.3424 89.9687 19.3726 89.674 19.3832C89.1271 19.4045 88.6477 19.3317 88.2358 19.1648C87.8274 18.9979 87.5096 18.7387 87.2823 18.3871C87.055 18.0356 86.9432 17.5917 86.9467 17.0555V9.12933ZM97.4803 15.7877V11.0896H99.7495V19.2714H97.5708V17.7852H97.4856C97.301 18.2646 96.9938 18.6499 96.5641 18.9411C96.138 19.2323 95.6177 19.3779 95.0034 19.3779C94.4565 19.3779 93.9753 19.2536 93.5598 19.005C93.1443 18.7565 92.8194 18.4031 92.585 17.945C92.3542 17.4869 92.237 16.9383 92.2335 16.2991V11.0896H94.5027V15.8942C94.5062 16.3772 94.6358 16.7589 94.8915 17.0395C95.1472 17.32 95.4899 17.4603 95.9196 17.4603C96.193 17.4603 96.4487 17.3982 96.6866 17.2739C96.9245 17.146 97.1163 16.9578 97.2619 16.7092C97.411 16.4607 97.4838 16.1535 97.4803 15.7877ZM101.565 19.2714V11.0896H103.764V12.5171H103.85C103.999 12.0093 104.249 11.6258 104.601 11.3665C104.952 11.1038 105.357 10.9724 105.815 10.9724C105.929 10.9724 106.051 10.9795 106.183 10.9937C106.314 11.0079 106.43 11.0274 106.529 11.0523V13.0658C106.422 13.0338 106.275 13.0054 106.087 12.9805C105.899 12.9557 105.726 12.9433 105.57 12.9433C105.236 12.9433 104.938 13.0161 104.675 13.1616C104.416 13.3037 104.21 13.5026 104.057 13.7582C103.908 14.0139 103.834 14.3087 103.834 14.6425V19.2714H101.565ZM111.05 19.4312C110.208 19.4312 109.484 19.2607 108.877 18.9198C108.273 18.5754 107.808 18.0888 107.481 17.4603C107.154 16.8282 106.991 16.0807 106.991 15.2178C106.991 14.3761 107.154 13.6375 107.481 13.0018C107.808 12.3662 108.268 11.8708 108.861 11.5157C109.457 11.1606 110.157 10.983 110.96 10.983C111.499 10.983 112.002 11.07 112.467 11.244C112.936 11.4145 113.344 11.6719 113.692 12.0164C114.044 12.3609 114.317 12.7941 114.512 13.3161C114.708 13.8346 114.805 14.4418 114.805 15.1379V15.7611H107.897V14.3548H112.669C112.669 14.0281 112.598 13.7387 112.456 13.4866C112.314 13.2344 112.117 13.0374 111.865 12.8953C111.616 12.7497 111.327 12.6769 110.997 12.6769C110.652 12.6769 110.347 12.7568 110.081 12.9166C109.818 13.0729 109.612 13.2842 109.463 13.5505C109.314 13.8133 109.237 14.1062 109.234 14.4294V15.7664C109.234 16.1712 109.308 16.521 109.457 16.8158C109.61 17.1105 109.825 17.3378 110.102 17.4976C110.379 17.6574 110.707 17.7373 111.087 17.7373C111.339 17.7373 111.57 17.7018 111.78 17.6308C111.989 17.5597 112.169 17.4532 112.318 17.3112C112.467 17.1691 112.581 16.9951 112.659 16.7891L114.757 16.9276C114.651 17.4319 114.433 17.8722 114.102 18.2487C113.776 18.6215 113.353 18.9127 112.835 19.1222C112.32 19.3282 111.725 19.4312 111.05 19.4312ZM123.094 13.4227L121.016 13.5505C120.981 13.3729 120.904 13.2131 120.787 13.0711C120.67 12.9255 120.516 12.8101 120.324 12.7249C120.136 12.6361 119.91 12.5917 119.647 12.5917C119.296 12.5917 118.999 12.6663 118.758 12.8154C118.516 12.961 118.396 13.1563 118.396 13.4013C118.396 13.5967 118.474 13.7618 118.63 13.8967C118.786 14.0317 119.054 14.14 119.434 14.2217L120.915 14.52C121.711 14.6833 122.304 14.9461 122.694 15.3083C123.085 15.6705 123.28 16.1464 123.28 16.7359C123.28 17.2721 123.122 17.7426 122.806 18.1474C122.494 18.5523 122.064 18.8683 121.517 19.0956C120.974 19.3193 120.347 19.4312 119.637 19.4312C118.554 19.4312 117.691 19.2057 117.048 18.7547C116.409 18.3001 116.034 17.6822 115.924 16.901L118.156 16.7838C118.223 17.1141 118.387 17.3662 118.646 17.5402C118.905 17.7107 119.237 17.7959 119.642 17.7959C120.04 17.7959 120.359 17.7195 120.601 17.5668C120.846 17.4106 120.97 17.2099 120.974 16.9649C120.97 16.7589 120.883 16.5903 120.713 16.4589C120.542 16.3239 120.279 16.221 119.924 16.1499L118.507 15.8676C117.708 15.7078 117.114 15.4308 116.723 15.0366C116.336 14.6425 116.142 14.14 116.142 13.5292C116.142 13.0036 116.284 12.5509 116.569 12.1709C116.856 11.7909 117.259 11.4979 117.778 11.292C118.3 11.086 118.911 10.983 119.61 10.983C120.643 10.983 121.457 11.2014 122.05 11.6382C122.646 12.075 122.994 12.6698 123.094 13.4227Z" fill="#6534FF"/>
</svg>
